<svg width="500" height="500" viewBox="0 0 500 500" fill="none" xmlns="http://www.w3.org/2000/svg">
<g clip-path="url(#clip0_10_8)">
<path d="M434.107 291.719V184.108H407.073V314.89H493.53V291.719H434.107Z" fill="black"/>
<path d="M391.541 184.108H364.507V314.89H391.541V184.108Z" fill="black"/>
<path d="M348.771 239.143H258.892V259.857H348.771V239.143Z" fill="black"/>
<path d="M213.065 190.252C203.761 184.752 193.228 182.001 181.466 182.001C169.704 182.001 159.26 184.752 149.956 190.252C140.652 195.694 133.307 203.477 127.924 213.6C122.541 223.665 119.849 235.66 119.849 249.587C119.849 263.515 122.541 275.364 127.924 285.486C133.307 295.55 140.652 303.334 149.956 308.834C159.26 314.276 169.763 316.996 181.466 316.996C193.169 316.996 203.761 314.276 213.065 308.834C222.369 303.334 229.712 295.55 235.096 285.486C240.479 275.421 243.172 263.455 243.172 249.587C243.172 235.72 240.481 223.665 235.096 213.6C229.713 203.476 222.369 195.694 213.065 190.252ZM211.573 273.198C208.646 279.693 204.58 284.638 199.372 288.033C194.163 291.426 188.195 293.124 181.466 293.124C174.737 293.124 168.856 291.427 163.647 288.033C158.498 284.639 154.431 279.694 151.446 273.198C148.521 266.704 147.058 258.833 147.058 249.587C147.058 240.342 148.521 232.384 151.446 225.888C154.431 219.335 158.498 214.361 163.647 210.966C168.856 207.572 174.794 205.875 181.466 205.875C188.138 205.875 194.163 207.572 199.372 210.966C204.58 214.361 208.646 219.333 211.573 225.888C214.498 232.383 215.962 240.283 215.962 249.587C215.962 258.892 214.5 266.704 211.573 273.198Z" fill="black"/>
<path d="M102.476 252.66C99.1983 249.617 95.014 247.014 89.9242 244.848C84.833 242.625 78.8062 240.753 71.8424 239.23L59.291 236.51C53.9666 235.339 49.6365 234.023 46.3005 232.56C42.9645 231.097 40.5369 229.4 39.0148 227.469C37.4928 225.479 36.7332 223.139 36.7332 220.446C36.7332 217.286 37.6988 214.478 39.63 212.021C41.6198 209.563 44.3106 207.662 47.7053 206.316C51.1571 204.911 55.0782 204.208 59.467 204.208C66.4894 204.208 72.1657 205.994 76.4945 209.563C80.8247 213.132 83.2237 218.019 83.6914 224.221H108.97C108.678 215.444 106.484 207.925 102.387 201.664C98.3486 195.343 92.6737 190.487 85.358 187.094C78.0437 183.699 69.3834 182.002 59.3769 182.002C49.3704 182.002 40.7987 183.67 33.3085 187.005C25.8769 190.341 20.0833 194.993 15.9291 200.961C11.7748 206.871 9.69773 213.806 9.69773 221.764C9.69773 231.127 12.8578 238.821 19.1778 244.848C25.4978 250.876 35.1524 255.294 48.143 258.102L61.9232 261.086C67.4822 262.256 71.9583 263.632 75.3529 265.212C78.8048 266.791 81.3211 268.635 82.9018 270.742C84.5397 272.79 85.3594 275.218 85.3594 278.026C85.3594 281.419 84.3066 284.375 82.1994 286.891C80.1509 289.407 77.2541 291.367 73.5104 292.772C69.824 294.118 65.4637 294.79 60.4326 294.79C54.8736 294.79 50.0756 293.884 46.0373 292.07C42.0003 290.256 38.8689 287.652 36.6459 284.258C34.4815 280.864 33.34 276.767 33.2227 271.969H7.15283C7.15283 281.449 9.25999 289.553 13.4729 296.283C17.6858 303.012 23.7426 308.162 31.6419 311.731C39.5413 315.241 49.08 316.998 60.2566 316.998C71.4333 316.998 80.1809 315.359 87.9058 312.083C95.6878 308.805 101.657 304.125 105.812 298.038C110.024 291.894 112.132 284.638 112.132 276.271C112.132 271.356 111.342 266.937 109.761 263.017C108.182 259.096 105.753 255.644 102.477 252.66H102.476Z" fill="black"/>
</g>
<defs>
<clipPath id="clip0_10_8">
<rect width="500" height="500" fill="white"/>
</clipPath>
</defs>
</svg>
