<svg width="16" height="23" viewBox="0 0 16 23" fill="none" xmlns="http://www.w3.org/2000/svg">
<g clip-path="url(#clip0_7_10)">
<path d="M3 9.09546H6.37793L11.155 4.99585H12.208V19.5369H10.979L8.24902 17.3064L6.37695 15.7869H3V9.09546Z" fill="white"/>
<path d="M11.5689 14.348C12.8596 14.348 13.9059 13.3017 13.9059 12.011C13.9059 10.7203 12.8596 9.67401 11.5689 9.67401C10.2782 9.67401 9.23193 10.7203 9.23193 12.011C9.23193 13.3017 10.2782 14.348 11.5689 14.348Z" fill="white"/>
<path d="M11.5689 14.348C12.8596 14.348 13.9059 13.3017 13.9059 12.011C13.9059 10.7203 12.8596 9.67401 11.5689 9.67401C10.2782 9.67401 9.23193 10.7203 9.23193 12.011C9.23193 13.3017 10.2782 14.348 11.5689 14.348Z" fill="white"/>
</g>
<line x1="0.586886" y1="22.7183" x2="15.5869" y2="0.718332" stroke="white"/>
<defs>
<clipPath id="clip0_7_10">
<rect width="10.906" height="14.541" fill="white" transform="translate(3 5)"/>
</clipPath>
</defs>
</svg>
