<svg width="545" height="379" viewBox="0 0 545 379" fill="none" xmlns="http://www.w3.org/2000/svg">
<g clip-path="url(#clip0_5_43)">
<path d="M351.89 0C294.28 0 241.24 24.24 204.63 66.22C190.329 62.2238 175.549 60.205 160.7 60.22C72 60.19 0 131.5 0 219.37C0 307.24 72 378.55 160.7 378.55C196.108 378.519 230.524 366.842 258.64 345.32C287.324 360.663 319.361 368.665 351.89 368.61C457.89 368.61 544.16 285.95 544.16 184.37C544.16 82.79 457.87 0 351.89 0ZM351.89 338.93C327.742 338.927 303.888 333.64 282 323.44C295.68 307.83 313.33 269.16 313.33 269.16C313.33 269.16 313.45 268.92 313.45 268.8C314.077 266.505 314.142 264.094 313.641 261.768C313.14 259.443 312.086 257.273 310.57 255.44C308.701 253.094 306.139 251.396 303.25 250.59C300.674 249.782 297.919 249.74 295.32 250.47C292.947 251.005 290.742 252.115 288.901 253.704C287.059 255.293 285.637 257.311 284.76 259.58L284.4 260.64C277.241 281.869 264.618 300.839 247.8 315.64L246.36 316.94C245.52 317.65 244.68 318.48 243.84 319.07C220.472 338.461 191.025 349.011 160.66 348.87C88.66 348.87 29.96 290.81 29.96 219.38C29.96 147.95 88.69 89.76 160.7 89.76C169.003 89.8161 177.282 90.6463 185.43 92.24C180.03 101.11 171.03 121.57 170.79 122.24C170.79 122.36 170.67 122.48 170.67 122.59C170.087 124.469 169.882 126.445 170.067 128.403C170.253 130.362 170.825 132.264 171.75 134C173.533 137.429 176.594 140.018 180.27 141.21C181.583 141.663 182.961 141.903 184.35 141.92C187.197 142.118 190.042 141.5 192.55 140.138C195.058 138.776 197.126 136.726 198.51 134.23C198.914 133.517 199.249 132.767 199.51 131.99C204.613 118.217 211.775 105.297 220.75 93.67C221.95 92.02 223.03 90.67 224.35 89.18C255.68 51.18 302.01 29.69 351.93 29.69C441.23 29.69 513.84 99.11 513.84 184.38C513.84 269.65 441.19 338.93 351.89 338.93Z" fill="black"/>
</g>
<defs>
<clipPath id="clip0_5_43">
<rect width="544.16" height="378.55" fill="white"/>
</clipPath>
</defs>
</svg>
