<svg width="700" height="701" viewBox="0 0 700 701" fill="none" xmlns="http://www.w3.org/2000/svg">
<g clip-path="url(#clip0_5_37)">
<path d="M691.06 26.24H673.56V8.74999C673.599 7.57669 673.403 6.40741 672.981 5.31177C672.559 4.21613 671.922 3.21654 671.106 2.37251C670.29 1.52848 669.312 0.857274 668.232 0.398867C667.151 -0.0595394 665.989 -0.295776 664.815 -0.295776C663.641 -0.295776 662.479 -0.0595394 661.398 0.398867C660.317 0.857274 659.34 1.52848 658.524 2.37251C657.708 3.21654 657.07 4.21613 656.649 5.31177C656.227 6.40741 656.03 7.57669 656.07 8.74999V26.24H638.57C637.421 26.24 636.283 26.4663 635.221 26.906C634.16 27.3458 633.195 27.9903 632.383 28.8028C631.57 29.6153 630.926 30.5799 630.486 31.6415C630.046 32.7031 629.82 33.8409 629.82 34.99C629.82 36.1391 630.046 37.2769 630.486 38.3385C630.926 39.4001 631.57 40.3647 632.383 41.1772C633.195 41.9897 634.16 42.6342 635.221 43.0739C636.283 43.5137 637.421 43.74 638.57 43.74H656.07V61.23C656.03 62.4033 656.227 63.5726 656.649 64.6682C657.07 65.7638 657.708 66.7634 658.524 67.6075C659.34 68.4515 660.317 69.1227 661.398 69.5811C662.479 70.0395 663.641 70.2757 664.815 70.2757C665.989 70.2757 667.151 70.0395 668.232 69.5811C669.312 69.1227 670.29 68.4515 671.106 67.6075C671.922 66.7634 672.559 65.7638 672.981 64.6682C673.403 63.5726 673.599 62.4033 673.56 61.23V43.74H691.06C693.38 43.74 695.606 42.8181 697.247 41.1772C698.888 39.5362 699.81 37.3106 699.81 34.99C699.81 32.6693 698.888 30.4437 697.247 28.8028C695.606 27.1619 693.38 26.24 691.06 26.24Z" fill="black"/>
<path d="M559.84 70H542.35V52.49C542.35 50.1693 541.428 47.9437 539.787 46.3028C538.146 44.6619 535.92 43.74 533.6 43.74C531.279 43.74 529.054 44.6619 527.413 46.3028C525.772 47.9437 524.85 50.1693 524.85 52.49V70H507.36C505.039 70 502.814 70.9219 501.173 72.5628C499.532 74.2037 498.61 76.4293 498.61 78.75C498.61 81.0706 499.532 83.2962 501.173 84.9372C502.814 86.5781 505.039 87.5 507.36 87.5H524.85V105C524.85 107.321 525.772 109.546 527.413 111.187C529.054 112.828 531.279 113.75 533.6 113.75C535.92 113.75 538.146 112.828 539.787 111.187C541.428 109.546 542.35 107.321 542.35 105V87.48H559.84C562.161 87.48 564.386 86.5581 566.027 84.9172C567.668 83.2762 568.59 81.0506 568.59 78.73C568.59 76.4093 567.668 74.1837 566.027 72.5428C564.386 70.9019 562.161 69.98 559.84 69.98V70Z" fill="black"/>
<path d="M301.68 176.73L290.68 175.38C281.632 174.413 272.539 173.922 263.44 173.91C118.19 173.91 0 292.1 0 437.38C0 582.66 118.19 700.85 263.48 700.85C272.627 700.836 281.766 700.338 290.86 699.36L301.7 698C430.54 679.34 527 568.3 527 437.38C527 306.46 430.52 195.42 301.68 176.73ZM259.78 665.67C135.51 663.66 35 562.12 35 437.38C35 312.64 135.51 211.09 259.78 209.09C179.47 253.62 125.09 339 125.09 437.38C125.09 535.76 179.47 621.13 259.78 665.67Z" fill="black"/>
</g>
<defs>
<clipPath id="clip0_5_37">
<rect width="699.8" height="700.85" fill="white"/>
</clipPath>
</defs>
</svg>
