<svg width="660" height="660" viewBox="0 0 660 660" fill="none" xmlns="http://www.w3.org/2000/svg">
<g clip-path="url(#clip0_5_14)">
<path d="M243.7 473C235.79 473 229.36 479.89 229.36 488.36V500.64C229.36 509.12 235.79 516 243.7 516C251.61 516 258 509.11 258 500.63V488.35C258 479.88 251.6 473 243.7 473Z" fill="black"/>
<path d="M301 473C293.09 473 286.66 479.89 286.66 488.36V500.64C286.66 509.12 293.09 516 301 516C308.91 516 315.33 509.12 315.33 500.64V488.35C315.37 479.88 308.94 473 301 473Z" fill="black"/>
<path d="M358.38 473C350.47 473 344.04 479.89 344.04 488.36V500.64C344.04 509.12 350.47 516 358.38 516C366.29 516 372.71 509.12 372.71 500.64V488.35C372.71 479.88 366.29 473 358.38 473Z" fill="black"/>
<path d="M415.72 516C407.81 516 401.38 522.89 401.38 531.36V543.65C401.38 552.12 407.81 559.01 415.72 559.01C423.63 559.01 430.05 552.12 430.05 543.65V531.35C430.05 522.88 423.63 516 415.72 516Z" fill="black"/>
<path d="M415.72 573.33C407.81 573.33 401.38 580.22 401.38 588.69V601C401.38 609.47 407.81 616.36 415.72 616.36C423.63 616.36 430.05 609.47 430.05 601V588.69C430.05 580.22 423.63 573.33 415.72 573.33Z" fill="black"/>
<path d="M358.38 530.33C350.47 530.33 344.04 537.22 344.04 545.69V558C344.04 566.48 350.47 573.36 358.38 573.36C366.29 573.36 372.71 566.48 372.71 558V545.69C372.71 537.22 366.29 530.33 358.38 530.33Z" fill="black"/>
<path d="M372.71 603C372.71 594.53 366.29 587.64 358.38 587.64C350.47 587.64 344 594.56 344 603V615.28C344 615.65 344.17 615.95 344.2 616.28C344.23 616.61 344 616.94 344 617.28V629.57C344 629.93 344.17 630.24 344.2 630.57C344.23 630.9 344 631.24 344 631.57V644C344 652.47 350.43 659.35 358.34 659.35C366.25 659.35 372.67 652.47 372.67 644V631.7C372.67 631.34 372.5 631.03 372.48 630.7C372.46 630.37 372.67 630.04 372.67 629.7V617.36C372.67 617 372.5 616.7 372.48 616.36C372.46 616.02 372.67 615.7 372.67 615.36L372.71 603Z" fill="black"/>
<path d="M301 616.34C293.09 616.34 286.66 623.23 286.66 631.7V644C286.66 652.47 293.09 659.35 301 659.35C308.91 659.35 315.33 652.47 315.33 644V631.7C315.37 623.23 308.94 616.34 301 616.34Z" fill="black"/>
<path d="M315.37 545.69C315.37 537.22 308.94 530.33 301.04 530.33C293.14 530.33 286.7 537.22 286.7 545.69V558C286.7 558.37 286.87 558.67 286.9 559C286.93 559.33 286.7 559.66 286.7 560V572.29C286.7 572.65 286.87 572.96 286.9 573.29C286.93 573.62 286.7 573.95 286.7 574.29V586.57C286.7 595.05 293.13 601.93 301.04 601.93C308.95 601.93 315.37 595.05 315.37 586.57V574.36C315.37 573.99 315.2 573.69 315.18 573.36C315.16 573.03 315.37 572.7 315.37 572.36V560C315.37 559.64 315.2 559.34 315.18 559C315.16 558.66 315.37 558.34 315.37 558V545.69Z" fill="black"/>
<path d="M243.7 573.33C235.79 573.33 229.36 580.22 229.36 588.69V601C229.36 609.47 235.79 616.36 243.7 616.36C251.61 616.36 258 609.45 258 601V588.69C258 580.22 251.6 573.33 243.7 573.33Z" fill="black"/>
<path d="M243.73 530.33H243.61C239.807 530.346 236.165 531.87 233.484 534.568C230.803 537.266 229.302 540.917 229.31 544.72C229.318 548.523 230.834 552.168 233.527 554.855C236.219 557.541 239.867 559.05 243.67 559.05C247.473 559.05 251.121 557.541 253.814 554.855C256.506 552.168 258.022 548.523 258.03 544.72C258.038 540.917 256.537 537.266 253.856 534.568C251.175 531.87 247.533 530.346 243.73 530.33Z" fill="black"/>
<path d="M415.75 473H415.64C411.836 473.015 408.194 474.538 405.512 477.235C402.83 479.932 401.328 483.584 401.335 487.387C401.342 491.191 402.858 494.837 405.551 497.524C408.243 500.211 411.891 501.72 415.695 501.72C419.499 501.72 423.147 500.211 425.839 497.524C428.532 494.837 430.048 491.191 430.055 487.387C430.062 483.584 428.56 479.932 425.878 477.235C423.196 474.538 419.554 473.015 415.75 473Z" fill="black"/>
<path d="M415.75 630.67H415.64C411.836 630.684 408.194 632.208 405.512 634.905C402.83 637.602 401.328 641.254 401.335 645.057C401.342 648.861 402.858 652.507 405.551 655.194C408.243 657.881 411.891 659.39 415.695 659.39C419.499 659.39 423.147 657.881 425.839 655.194C428.532 652.507 430.048 648.861 430.055 645.057C430.062 641.254 428.56 637.602 425.878 634.905C423.196 632.208 419.554 630.684 415.75 630.67Z" fill="black"/>
<path d="M243.73 630.67H243.61C239.807 630.686 236.165 632.21 233.484 634.908C230.803 637.605 229.302 641.257 229.31 645.06C229.318 648.863 230.834 652.508 233.527 655.194C236.219 657.881 239.867 659.39 243.67 659.39C247.473 659.39 251.121 657.881 253.814 655.194C256.506 652.508 258.022 648.863 258.03 645.06C258.038 641.257 256.537 637.605 253.856 634.908C251.175 632.21 247.533 630.686 243.73 630.67Z" fill="black"/>
<path d="M426.42 0C356.61 0 292.33 29.38 248 80.25C230.673 75.3951 212.764 72.9356 194.77 72.94C87.26 72.94 0 159.36 0 265.83C0 372.3 87.26 458.72 194.74 458.72C237.646 458.684 279.348 444.537 313.42 418.46C348.178 437.055 387 446.754 426.42 446.69C554.85 446.69 659.42 346.52 659.42 223.41C659.42 100.3 554.85 0 426.42 0ZM426.42 410.72C397.175 410.707 368.286 404.298 341.78 391.94C358.36 373.03 379.78 326.17 379.78 326.17C379.78 326.02 379.93 325.88 379.93 325.74C380.687 322.957 380.765 320.032 380.155 317.213C379.546 314.394 378.269 311.762 376.43 309.54C374.165 306.698 371.061 304.644 367.56 303.67C364.443 302.687 361.106 302.635 357.96 303.52C355.089 304.163 352.42 305.502 350.19 307.421C347.959 309.339 346.235 311.777 345.17 314.52L344.73 315.81C336.052 341.533 320.752 364.517 300.37 382.45L298.62 384.02C297.62 384.88 296.62 385.88 295.57 386.6C267.256 410.099 231.575 422.882 194.78 422.71C107.52 422.71 36.4 352.35 36.4 265.79C36.4 179.23 107.52 108.73 194.78 108.73C204.851 108.797 214.895 109.802 224.78 111.73C218.24 122.48 207.33 147.27 207.04 148.13C207.04 148.27 206.89 148.42 206.89 148.56C206.191 150.827 205.947 153.209 206.172 155.571C206.396 157.932 207.086 160.226 208.2 162.32C210.364 166.475 214.074 169.614 218.53 171.06C220.12 171.61 221.788 171.9 223.47 171.92C226.922 172.157 230.369 171.406 233.41 169.756C236.45 168.105 238.958 165.623 240.64 162.6C241.11 161.731 241.499 160.821 241.8 159.88C247.985 143.192 256.664 127.538 267.54 113.45C269 111.45 270.3 109.87 271.9 108C309.9 62 366 35.92 426.5 35.92C534.71 35.92 622.7 120.04 622.7 223.36C622.7 326.68 534.63 410.72 426.42 410.72Z" fill="black"/>
</g>
<defs>
<clipPath id="clip0_5_14">
<rect width="659.42" height="659.34" fill="white"/>
</clipPath>
</defs>
</svg>
