<svg width="500" height="500" viewBox="0 0 500 500" fill="none" xmlns="http://www.w3.org/2000/svg">
<g clip-path="url(#clip0_5_2)">
<path d="M258.75 73.0001L263.57 73.2901V13.6301C263.474 10.0778 261.995 6.70328 259.449 4.22475C256.902 1.74622 253.489 0.359375 249.935 0.359375C246.382 0.359375 242.968 1.74622 240.422 4.22475C237.875 6.70328 236.397 10.0778 236.3 13.6301V73.2601L241.12 72.9701C246.992 72.6301 252.879 72.6401 258.75 73.0001Z" fill="black"/>
<path d="M241.13 426.9L236.3 426.6V486.24C236.251 488.062 236.567 489.875 237.23 491.572C237.893 493.27 238.889 494.817 240.16 496.123C241.431 497.429 242.951 498.467 244.63 499.175C246.309 499.884 248.113 500.249 249.935 500.249C251.757 500.249 253.561 499.884 255.24 499.175C256.919 498.467 258.439 497.429 259.71 496.123C260.981 494.817 261.977 493.27 262.64 491.572C263.303 489.875 263.619 488.062 263.57 486.24V426.6L258.74 426.9C252.875 427.26 246.994 427.26 241.13 426.9Z" fill="black"/>
<path d="M118.5 368.83L115.29 365.34L73.2201 407.41C70.6789 409.946 69.2441 413.384 69.2291 416.974C69.2141 420.563 70.6201 424.013 73.1401 426.57C74.402 427.846 75.9033 428.861 77.5582 429.556C79.213 430.251 80.9887 430.613 82.7835 430.62C84.5783 430.628 86.357 430.281 88.0175 429.6C89.678 428.918 91.1877 427.916 92.4601 426.65L134.54 384.59L131.04 381.38C126.7 377.39 122.48 373.17 118.5 368.83Z" fill="black"/>
<path d="M381.38 131L384.59 134.5L426.65 92.4302C429.201 89.8764 430.634 86.4146 430.634 82.8052C430.634 79.1958 429.201 75.7339 426.65 73.1802C424.057 70.705 420.61 69.324 417.025 69.324C413.44 69.324 409.993 70.705 407.4 73.1802L365.33 115.25L368.82 118.46C373.17 122.48 377.39 126.7 381.38 131Z" fill="black"/>
<path d="M73.0001 258.74C72.8101 255.84 72.7301 252.84 72.7301 249.94C72.7301 247.04 72.8101 244.04 73.0001 241.13L73.3001 236.3H13.6301C10.0778 236.396 6.70328 237.875 4.22475 240.422C1.74622 242.968 0.359375 246.381 0.359375 249.935C0.359375 253.489 1.74622 256.902 4.22475 259.449C6.70328 261.995 10.0778 263.474 13.6301 263.57H73.2801L73.0001 258.74Z" fill="black"/>
<path d="M392.76 249.94C392.76 247.08 392.68 244.3 392.5 241.54C390.582 209.545 377.935 179.131 356.6 155.21C352.938 150.963 348.967 146.992 344.72 143.33C320.804 121.949 290.372 109.265 258.35 107.33C252.752 106.99 247.138 106.99 241.54 107.33C209.543 109.247 179.127 121.899 155.21 143.24C150.961 146.9 146.99 150.871 143.33 155.12C121.951 179.034 109.267 209.462 107.33 241.48C107.16 244.26 107.08 247.04 107.08 249.9C107.08 252.76 107.16 255.54 107.33 258.3C109.245 290.295 121.897 320.708 143.24 344.62C146.9 348.87 150.871 352.841 155.12 356.5C179.034 377.879 209.462 390.564 241.48 392.5C244.26 392.68 247.04 392.76 249.9 392.76C252.76 392.76 255.54 392.68 258.3 392.5C290.293 390.584 320.704 377.936 344.62 356.6C348.87 352.941 352.841 348.97 356.5 344.72C377.881 320.804 390.566 290.372 392.5 258.35C392.68 255.58 392.76 252.8 392.76 249.94ZM367.96 257.84C366.362 283.753 356.155 308.389 338.96 327.84C335.489 331.781 331.771 335.499 327.83 338.97C308.358 356.182 283.69 366.389 257.75 367.97C252.512 368.459 247.24 368.469 242 368C216.087 366.404 191.45 356.197 172 339C168.058 335.526 164.337 331.809 160.86 327.87C143.659 308.392 133.452 283.728 131.86 257.79C131.63 255.22 131.55 252.65 131.55 250.01C131.55 247.37 131.63 244.79 131.87 242.11C133.468 216.198 143.675 191.561 160.87 172.11C164.345 168.166 168.065 164.445 172.01 160.97C191.485 143.769 216.145 133.562 242.08 131.97C244.65 131.74 247.22 131.66 249.87 131.66C252.52 131.66 255.08 131.74 257.77 131.98C283.683 133.576 308.32 143.783 327.77 160.98C331.717 164.452 335.438 168.173 338.91 172.12C356.121 191.589 366.329 216.253 367.91 242.19C368.15 244.76 368.23 247.33 368.23 249.98C368.23 252.63 368.2 255.15 368 257.84H367.96Z" fill="black"/>
<path d="M486.24 236.3H426.6L426.9 241.13C427.08 244.04 427.17 247.03 427.17 249.94C427.17 252.85 427.08 255.84 426.9 258.74L426.6 263.57H486.24C488.062 263.62 489.875 263.303 491.572 262.64C493.27 261.977 494.817 260.981 496.123 259.71C497.429 258.439 498.467 256.919 499.175 255.24C499.884 253.561 500.249 251.757 500.249 249.935C500.249 248.113 499.884 246.309 499.175 244.63C498.467 242.951 497.429 241.432 496.123 240.161C494.817 238.89 493.27 237.893 491.572 237.23C489.875 236.567 488.062 236.251 486.24 236.3Z" fill="black"/>
<path d="M115.29 134.54L118.5 131.04C122.5 126.7 126.7 122.48 131.04 118.5L134.54 115.29L92.4699 73.2201C89.8698 70.7586 86.4253 69.3867 82.8449 69.3867C79.2644 69.3867 75.82 70.7586 73.2199 73.2201C71.9548 74.4825 70.9511 75.9819 70.2663 77.6327C69.5815 79.2834 69.229 81.053 69.229 82.8401C69.229 84.6273 69.5815 86.3969 70.2663 88.0476C70.9511 89.6984 71.9548 91.1978 73.2199 92.4601L115.29 134.54Z" fill="black"/>
<path d="M384.59 365.34L381.38 368.83C377.38 373.17 373.17 377.39 368.83 381.38L365.34 384.59L407.34 426.59C408.602 427.866 410.103 428.88 411.757 429.576C413.412 430.271 415.187 430.633 416.981 430.641C418.776 430.65 420.554 430.304 422.215 429.624C423.876 428.945 425.386 427.944 426.66 426.68C427.925 425.417 428.929 423.917 429.614 422.265C430.299 420.613 430.652 418.843 430.652 417.055C430.652 415.267 430.299 413.497 429.614 411.845C428.929 410.194 427.925 408.693 426.66 407.43L384.59 365.34Z" fill="black"/>
</g>
<defs>
<clipPath id="clip0_5_2">
<rect width="499.88" height="499.88" fill="white"/>
</clipPath>
</defs>
</svg>
