<svg width="718" height="703" viewBox="0 0 718 703" fill="none" xmlns="http://www.w3.org/2000/svg">
<g clip-path="url(#clip0_5_32)">
<path d="M412.48 525.33H412.32C408.551 522.944 404.441 521.146 400.13 520L354.53 507.55L354.37 507.71V507.55L376.06 452.39L381.76 437.74L384.76 430.17L386.03 426.86C387.627 422.971 388.064 418.703 387.29 414.57C387.107 412.38 386.517 410.243 385.55 408.27C384.011 404.918 381.673 401.996 378.74 399.76C376.856 398.193 374.714 396.965 372.41 396.13C370.332 395.326 368.143 394.848 365.92 394.71C365.24 394.591 364.55 394.541 363.86 394.56C363.431 394.536 363.001 394.587 362.59 394.71C358.833 394.71 355.156 395.793 352 397.83C347.418 400.483 343.853 404.59 341.87 409.5L339.18 416.27L338.7 417.38L337.91 419.58L332.84 432.35L326.98 447.35L310 490C309.621 490.855 309.355 491.756 309.21 492.68C305.442 504.101 306.179 516.531 311.27 527.427C316.361 538.323 325.422 546.862 336.6 551.3C338.236 552.028 339.932 552.61 341.67 553.04L387.43 565.65L325.39 666.22C323.44 669.341 322.251 672.876 321.918 676.541C321.586 680.206 322.119 683.898 323.476 687.318C324.833 690.739 326.974 693.793 329.728 696.234C332.482 698.675 335.771 700.434 339.33 701.37C340.722 701.783 342.153 702.047 343.6 702.16C344.225 702.284 344.863 702.335 345.5 702.31C349.546 702.298 353.525 701.266 357.067 699.31C360.61 697.354 363.603 694.538 365.77 691.12L428 590.42C431.294 585.14 433.496 579.253 434.475 573.108C435.454 566.962 435.19 560.682 433.7 554.64C432.264 548.599 429.65 542.901 426.009 537.872C422.368 532.842 417.77 528.581 412.48 525.33Z" fill="black"/>
<path d="M464.26 0C388.41 0 318 32 269.81 88.1C251.062 82.7849 231.667 80.0926 212.18 80.1C95.16 80.06 0 175.25 0 292.18C0 409.11 95.16 504.31 212.18 504.31C231.785 504.303 251.291 501.547 270.13 496.12C271.08 495.8 272.19 495.64 273.13 495.33C277.643 493.997 281.522 491.078 284.053 487.11C286.583 483.143 287.594 478.394 286.9 473.74C286.772 472.725 286.561 471.721 286.27 470.74C285.791 469.053 285.041 467.456 284.05 466.01C281.74 462.301 278.26 459.467 274.161 457.955C270.061 456.443 265.575 456.34 261.41 457.66C245.431 462.417 228.842 464.806 212.17 464.75C117 464.75 39.73 387.37 39.73 292.18C39.73 196.99 117 119.62 212.18 119.62C223.084 119.627 233.959 120.736 244.64 122.93C237.742 134.315 231.859 146.284 227.06 158.7C226.9 158.86 226.9 159.17 226.75 159.33C226.59 159.65 226.59 159.8 226.43 160.12C224.589 165.102 224.803 170.611 227.025 175.436C229.246 180.26 233.293 184.004 238.275 185.845C243.257 187.686 248.766 187.472 253.591 185.25C258.415 183.029 262.159 178.982 264 174C270.592 156.35 279.772 139.779 291.24 124.83C292.654 122.702 294.243 120.695 295.99 118.83C337.32 68.24 398.44 39.56 464.31 39.56C582.11 39.56 677.91 132.07 677.91 245.56C677.91 359.18 582.11 451.56 464.31 451.56C452.536 451.561 440.781 450.611 429.16 448.72C425.399 448.067 421.531 448.49 418 449.94C414.937 451.214 412.245 453.238 410.17 455.827C408.096 458.415 406.707 461.484 406.13 464.75C405.35 469.408 406.186 474.193 408.5 478.31C409.876 480.728 411.766 482.813 414.036 484.42C416.307 486.027 418.903 487.116 421.64 487.61C421.8 487.61 450.78 491.23 464.24 491.23C604.05 491.23 717.9 381.07 717.9 245.54C717.92 110.16 604.07 0 464.26 0Z" fill="black"/>
</g>
<defs>
<clipPath id="clip0_5_32">
<rect width="717.92" height="702.31" fill="white"/>
</clipPath>
</defs>
</svg>
